<?xml version="1.0" encoding="UTF-8"?>
<svg width="1440px" height="1024px" viewBox="0 0 1440 1024" version="1.1" xmlns="http://www.w3.org/2000/svg" xmlns:xlink="http://www.w3.org/1999/xlink">
    <!-- Generator: Sketch 53.2 (72643) - https://sketchapp.com -->
    <title>Marketplace</title>
    <desc>Created with Sketch.</desc>
    <defs>
        <linearGradient x1="36.5293971%" y1="64.6123462%" x2="85.9940256%" y2="37.0301399%" id="linearGradient-1">
            <stop stop-color="#FF6E6E" offset="0%"></stop>
            <stop stop-color="#FF6E6E" offset="100%"></stop>
        </linearGradient>
        <linearGradient x1="36.0287804%" y1="100%" x2="54.8036986%" y2="31.6413311%" id="linearGradient-2">
            <stop stop-color="#D1BCFF" offset="0%"></stop>
            <stop stop-color="#A587FF" offset="100%"></stop>
        </linearGradient>
    </defs>
    <g id="Marketplace" stroke="none" stroke-width="1" fill="none" fill-rule="evenodd">
        <rect fill="#FFFFFF" x="0" y="0" width="1440" height="1024"></rect>
        <g id="Plant" transform="translate(1065.000000, 192.000000)">
            <path d="M39.4981201,164.85314 C63.4566962,71.748516 121.682551,39.0261602 214.175686,66.686073 C206.306031,108.785983 187.576224,141.226961 157.986264,164.009006 C128.396305,186.791051 88.9002567,187.07243 39.4981201,164.85314 Z" id="Shape" fill="url(#linearGradient-1)"></path>
            <path d="M112.199981,124.886095 C100.139976,131.70387 89.6132561,137.684381 80.6200381,142.827502 L106.833213,152.40034 C107.351987,152.589792 107.618955,153.163922 107.429503,153.682696 C107.240051,154.20147 106.66592,154.468438 106.147147,154.278986 L78.4735497,144.172815 C78.4334125,144.158157 78.3947825,144.141197 78.3577547,144.122137 C64.2878983,152.179389 54.1992577,158.06264 48.092738,161.771355 C47.6206926,162.058046 47.0056154,161.907786 46.7189248,161.435741 C46.4322341,160.963695 46.5824938,160.348618 47.0545393,160.061927 C57.2599941,153.863777 78.5426326,141.617214 110.906658,123.319766 L114.182626,91.2147532 C114.317975,89.8883075 116.307644,90.0913315 116.172294,91.4177773 L113.040088,122.113908 C137.314606,108.396877 167.641095,91.3752236 204.02125,71.047949 C204.503379,70.7785611 205.112604,70.951022 205.381992,71.4331513 C205.65138,71.9152805 205.478919,72.5245055 204.99679,72.7938934 C185.072135,83.9267193 166.963292,94.068028 150.67054,103.217655 L178.847155,109.94056 C179.38436,110.068737 179.715944,110.608135 179.587767,111.14534 C179.459591,111.682545 178.920192,112.014128 178.382987,111.885952 L148.101221,104.660761 C135.046853,111.994206 123.186373,118.675724 112.51993,124.705228 C112.425509,124.78719 112.316363,124.847224 112.199981,124.886095 L112.199981,124.886095 Z" id="Shape" fill="#FFFFFF" fill-rule="nonzero"></path>
            <path d="M50.2925002,192.93029 C1.39886056,110.154107 19.4325579,45.8440106 104.393592,5.68434189e-14 C128.598038,35.3338181 138.293299,71.5170271 133.479377,108.549627 C128.665455,145.582227 100.936496,173.709114 50.2925002,192.93029 Z" id="Shape" fill="url(#linearGradient-2)"></path>
            <path d="M71.4174312,113.068298 L51.0322176,88.0501669 C50.1899853,87.0165217 51.7404532,85.7531732 52.5826855,86.7868184 L72.0733233,110.707065 C79.5385941,83.8429829 88.9465331,50.3627908 100.297634,10.2645827 C100.448065,9.73317982 101.0008,9.42434098 101.532203,9.57477183 C102.063606,9.72520267 102.372445,10.2779381 102.222014,10.809341 C96.0052518,32.7702963 90.3713544,52.7461701 85.3204025,70.7366492 L109.99809,55.5665848 C110.468586,55.2773579 111.084463,55.4243053 111.37369,55.8948011 C111.662917,56.3652968 111.515969,56.9811737 111.045474,57.2704006 L84.5240498,73.5738611 C80.4787456,87.9902222 76.8166666,101.101395 73.537856,112.907212 C73.5290457,113.031934 73.4943191,113.151562 73.4395101,113.261343 C69.7326936,126.609949 66.518039,138.282324 63.7956093,148.278225 L89.1001411,136.51173 C89.6009325,136.278864 90.1956791,136.496061 90.4285449,136.996852 C90.6614106,137.497643 90.444214,138.09239 89.9434227,138.325256 L63.2290923,150.747301 C63.1903464,150.765318 63.151038,150.78064 63.1113783,150.793346 C58.8598251,166.439575 55.8861651,177.733407 54.1906615,184.673826 C54.0595959,185.210334 53.518421,185.539009 52.9819135,185.407944 C52.4454061,185.276878 52.1167305,184.735703 52.2477961,184.199196 C55.0813881,172.600095 61.4708588,148.89137 71.4174312,113.068298 Z" id="Shape" fill="#FFFFFF" fill-rule="nonzero"></path>
            <path d="M-1.13686838e-13,227.324394 C47.2394574,143.593169 111.950484,127.05576 194.133079,177.712169 C175.635317,216.340743 149.14737,242.82869 114.669237,257.176011 C80.1911033,271.523332 41.9680244,261.572793 -1.13686838e-13,227.324394 Z" id="Shape" fill="#66D4FF"></path>
            <path d="M79.7249797,205.688125 L91.1987099,175.524946 C91.6727567,174.278729 93.5420825,174.9898 93.0680357,176.236017 L82.0978137,205.075527 C109.095426,198.108601 142.794093,189.516019 183.19571,179.297256 C183.731134,179.161832 184.274964,179.486095 184.410388,180.021519 C184.545813,180.556943 184.221549,181.100773 183.686125,181.236197 C161.558999,186.832801 141.442436,191.94164 123.336749,196.562627 L148.813254,210.349099 C149.298979,210.611947 149.479657,211.218786 149.21681,211.704511 C148.953962,212.190237 148.347123,212.370915 147.861397,212.108067 L120.481475,197.291571 C105.973888,200.996415 92.7882394,204.380548 80.9246965,207.443924 C80.8122791,207.498655 80.6913149,207.528394 80.5688374,207.535819 C67.1551971,210.999925 55.4392964,214.05214 45.4213772,216.692397 L68.2637271,232.723517 C68.7157905,233.040782 68.825066,233.664446 68.5078008,234.116509 C68.1905357,234.568573 67.5668717,234.677848 67.1148084,234.360583 L42.9998362,217.436317 C42.9648603,217.41177 42.9319364,217.38539 42.9011031,217.357396 C27.2252951,221.498557 15.9577195,224.570208 9.09938818,226.572069 C8.56922629,226.726816 8.01399746,226.422483 7.85924988,225.892321 C7.7045023,225.362159 8.00883573,224.80693 8.53899762,224.652183 C20.0009094,221.306595 43.7280033,214.985676 79.7249797,205.688125 Z" id="Shape" fill="#FFFFFF" fill-rule="nonzero"></path>
        </g>
        <g id="Bag" transform="translate(919.000000, 247.000000)">
            <path d="M23.693953,79 L207.306047,79 C209.391977,79 211.127725,80.6029427 211.293409,82.6822819 L231,330 L0,330 L19.7065911,82.6822819 C19.8722755,80.6029427 21.6080232,79 23.693953,79 Z" id="Shape" fill="#FFA1A1"></path>
            <path d="M23.680837,79 L207.294963,79 C209.385486,79 211.123432,80.6097886 211.283256,82.6941931 L212.893359,103.692934 L17.9443117,103.692934 L19.6946265,82.6681477 C19.8672296,80.5948383 21.6003554,79 23.680837,79 Z" id="Shape" fill="#FF6E6E"></path>
            <path d="M77,115 C77,117.761424 74.7614237,120 72,120 C69.2385763,120 67,117.761424 67,115 L67,49 C67,21.9380473 88.9380473,0 116,0 C143.061953,0 165,21.9380473 165,49 L165,115 C165,117.761424 162.761424,120 160,120 C157.238576,120 155,117.761424 155,115 L155,49 C155,27.4608948 137.539105,10 116,10 C94.4608948,10 77,27.4608948 77,49 L77,115 Z" id="Shape" fill="#221E41" fill-rule="nonzero"></path>
        </g>
        <g id="Ornament" transform="translate(339.000000, 245.000000)">
            <circle id="Shape" fill="#ECE7FF" cx="320" cy="320" r="320"></circle>
            <path d="M519,274 L646,274 C670.852814,274 691,294.147186 691,319 L564,319 C539.147186,319 519,298.852814 519,274 Z" id="Shape" fill="#A587FF"></path>
            <path d="M798.817615,557.579399 C798.817615,560.01417 796.843724,561.987942 794.408807,561.987942 C791.97389,561.987942 790,560.01417 790,557.579399 C790,555.144628 791.97389,553.170856 794.408807,553.170856 C796.843724,553.170856 798.817615,555.144628 798.817615,557.579399 Z M798.817615,539.945228 C798.817615,542.379999 796.843724,544.353771 794.408807,544.353771 C791.97389,544.353771 790,542.379999 790,539.945228 C790,537.510457 791.97389,535.536685 794.408807,535.536685 C796.843724,535.536685 798.817615,537.510457 798.817615,539.945228 Z M798.817615,522.311057 C798.817615,524.745828 796.843724,526.719599 794.408807,526.719599 C791.97389,526.719599 790,524.745828 790,522.311057 C790,519.876286 791.97389,517.902514 794.408807,517.902514 C796.843724,517.902514 798.817615,519.876286 798.817615,522.311057 Z M798.817615,504.676885 C798.817615,507.111656 796.843724,509.085428 794.408807,509.085428 C791.97389,509.085428 790,507.111656 790,504.676885 C790,502.242114 791.97389,500.268343 794.408807,500.268343 C796.843724,500.268343 798.817615,502.242114 798.817615,504.676885 Z M798.817615,487.042714 C798.817615,489.477485 796.843724,491.451257 794.408807,491.451257 C791.97389,491.451257 790,489.477485 790,487.042714 C790,484.607943 791.97389,482.634171 794.408807,482.634171 C796.843724,482.634171 798.817615,484.607943 798.817615,487.042714 Z M798.817615,469.408543 C798.817615,471.843314 796.843724,473.817086 794.408807,473.817086 C791.97389,473.817086 790,471.843314 790,469.408543 C790,466.973772 791.97389,465 794.408807,465 C796.843724,465 798.817615,466.973772 798.817615,469.408543 Z M816.452844,557.579399 C816.452844,560.01417 814.478954,561.987942 812.044037,561.987942 C809.609119,561.987942 807.635229,560.01417 807.635229,557.579399 C807.635229,555.144628 809.609119,553.170856 812.044037,553.170856 C814.478954,553.170856 816.452844,555.144628 816.452844,557.579399 Z M816.452844,539.945228 C816.452844,542.379999 814.478954,544.353771 812.044037,544.353771 C809.609119,544.353771 807.635229,542.379999 807.635229,539.945228 C807.635229,537.510457 809.609119,535.536685 812.044037,535.536685 C814.478954,535.536685 816.452844,537.510457 816.452844,539.945228 Z M816.452844,522.311057 C816.452844,524.745828 814.478954,526.719599 812.044037,526.719599 C809.609119,526.719599 807.635229,524.745828 807.635229,522.311057 C807.635229,519.876286 809.609119,517.902514 812.044037,517.902514 C814.478954,517.902514 816.452844,519.876286 816.452844,522.311057 Z M816.452844,504.676885 C816.452844,507.111656 814.478954,509.085428 812.044037,509.085428 C809.609119,509.085428 807.635229,507.111656 807.635229,504.676885 C807.635229,502.242114 809.609119,500.268343 812.044037,500.268343 C814.478954,500.268343 816.452844,502.242114 816.452844,504.676885 Z M816.452844,487.042714 C816.452844,489.477485 814.478954,491.451257 812.044037,491.451257 C809.609119,491.451257 807.635229,489.477485 807.635229,487.042714 C807.635229,484.607943 809.609119,482.634171 812.044037,482.634171 C814.478954,482.634171 816.452844,484.607943 816.452844,487.042714 Z M816.452844,469.408543 C816.452844,471.843314 814.478954,473.817086 812.044037,473.817086 C809.609119,473.817086 807.635229,471.843314 807.635229,469.408543 C807.635229,466.973772 809.609119,465 812.044037,465 C814.478954,465 816.452844,466.973772 816.452844,469.408543 Z M834.088073,557.579399 C834.088073,560.01417 832.114183,561.987942 829.679266,561.987942 C827.244349,561.987942 825.270458,560.01417 825.270458,557.579399 C825.270458,555.144628 827.244349,553.170856 829.679266,553.170856 C832.114183,553.170856 834.088073,555.144628 834.088073,557.579399 Z M834.088073,539.945228 C834.088073,542.379999 832.114183,544.353771 829.679266,544.353771 C827.244349,544.353771 825.270458,542.379999 825.270458,539.945228 C825.270458,537.510457 827.244349,535.536685 829.679266,535.536685 C832.114183,535.536685 834.088073,537.510457 834.088073,539.945228 Z M834.088073,522.311057 C834.088073,524.745828 832.114183,526.719599 829.679266,526.719599 C827.244349,526.719599 825.270458,524.745828 825.270458,522.311057 C825.270458,519.876286 827.244349,517.902514 829.679266,517.902514 C832.114183,517.902514 834.088073,519.876286 834.088073,522.311057 Z M834.088073,504.676885 C834.088073,507.111656 832.114183,509.085428 829.679266,509.085428 C827.244349,509.085428 825.270458,507.111656 825.270458,504.676885 C825.270458,502.242114 827.244349,500.268343 829.679266,500.268343 C832.114183,500.268343 834.088073,502.242114 834.088073,504.676885 Z M834.088073,487.042714 C834.088073,489.477485 832.114183,491.451257 829.679266,491.451257 C827.244349,491.451257 825.270458,489.477485 825.270458,487.042714 C825.270458,484.607943 827.244349,482.634171 829.679266,482.634171 C832.114183,482.634171 834.088073,484.607943 834.088073,487.042714 Z M834.088073,469.408543 C834.088073,471.843314 832.114183,473.817086 829.679266,473.817086 C827.244349,473.817086 825.270458,471.843314 825.270458,469.408543 C825.270458,466.973772 827.244349,465 829.679266,465 C832.114183,465 834.088073,466.973772 834.088073,469.408543 Z M851.723302,557.579399 C851.723302,560.01417 849.749412,561.987942 847.314495,561.987942 C844.879578,561.987942 842.905688,560.01417 842.905688,557.579399 C842.905688,555.144628 844.879578,553.170856 847.314495,553.170856 C849.749412,553.170856 851.723302,555.144628 851.723302,557.579399 Z M851.723302,539.945228 C851.723302,542.379999 849.749412,544.353771 847.314495,544.353771 C844.879578,544.353771 842.905688,542.379999 842.905688,539.945228 C842.905688,537.510457 844.879578,535.536685 847.314495,535.536685 C849.749412,535.536685 851.723302,537.510457 851.723302,539.945228 Z M851.723302,522.311057 C851.723302,524.745828 849.749412,526.719599 847.314495,526.719599 C844.879578,526.719599 842.905688,524.745828 842.905688,522.311057 C842.905688,519.876286 844.879578,517.902514 847.314495,517.902514 C849.749412,517.902514 851.723302,519.876286 851.723302,522.311057 Z M851.723302,504.676885 C851.723302,507.111656 849.749412,509.085428 847.314495,509.085428 C844.879578,509.085428 842.905688,507.111656 842.905688,504.676885 C842.905688,502.242114 844.879578,500.268343 847.314495,500.268343 C849.749412,500.268343 851.723302,502.242114 851.723302,504.676885 Z M851.723302,487.042714 C851.723302,489.477485 849.749412,491.451257 847.314495,491.451257 C844.879578,491.451257 842.905688,489.477485 842.905688,487.042714 C842.905688,484.607943 844.879578,482.634171 847.314495,482.634171 C849.749412,482.634171 851.723302,484.607943 851.723302,487.042714 Z M851.723302,469.408543 C851.723302,471.843314 849.749412,473.817086 847.314495,473.817086 C844.879578,473.817086 842.905688,471.843314 842.905688,469.408543 C842.905688,466.973772 844.879578,465 847.314495,465 C849.749412,465 851.723302,466.973772 851.723302,469.408543 Z M869.358531,557.579399 C869.358531,560.01417 867.384641,561.987942 864.949724,561.987942 C862.514807,561.987942 860.540917,560.01417 860.540917,557.579399 C860.540917,555.144628 862.514807,553.170856 864.949724,553.170856 C867.384641,553.170856 869.358531,555.144628 869.358531,557.579399 Z M869.358531,539.945228 C869.358531,542.379999 867.384641,544.353771 864.949724,544.353771 C862.514807,544.353771 860.540917,542.379999 860.540917,539.945228 C860.540917,537.510457 862.514807,535.536685 864.949724,535.536685 C867.384641,535.536685 869.358531,537.510457 869.358531,539.945228 Z M869.358531,522.311057 C869.358531,524.745828 867.384641,526.719599 864.949724,526.719599 C862.514807,526.719599 860.540917,524.745828 860.540917,522.311057 C860.540917,519.876286 862.514807,517.902514 864.949724,517.902514 C867.384641,517.902514 869.358531,519.876286 869.358531,522.311057 Z M869.358531,504.676885 C869.358531,507.111656 867.384641,509.085428 864.949724,509.085428 C862.514807,509.085428 860.540917,507.111656 860.540917,504.676885 C860.540917,502.242114 862.514807,500.268343 864.949724,500.268343 C867.384641,500.268343 869.358531,502.242114 869.358531,504.676885 Z M869.358531,487.042714 C869.358531,489.477485 867.384641,491.451257 864.949724,491.451257 C862.514807,491.451257 860.540917,489.477485 860.540917,487.042714 C860.540917,484.607943 862.514807,482.634171 864.949724,482.634171 C867.384641,482.634171 869.358531,484.607943 869.358531,487.042714 Z M869.358531,469.408543 C869.358531,471.843314 867.384641,473.817086 864.949724,473.817086 C862.514807,473.817086 860.540917,471.843314 860.540917,469.408543 C860.540917,466.973772 862.514807,465 864.949724,465 C867.384641,465 869.358531,466.973772 869.358531,469.408543 Z M886.993761,557.579399 C886.993761,560.01417 885.01987,561.987942 882.584953,561.987942 C880.150036,561.987942 878.176146,560.01417 878.176146,557.579399 C878.176146,555.144628 880.150036,553.170856 882.584953,553.170856 C885.01987,553.170856 886.993761,555.144628 886.993761,557.579399 Z M886.993761,539.945228 C886.993761,542.379999 885.01987,544.353771 882.584953,544.353771 C880.150036,544.353771 878.176146,542.379999 878.176146,539.945228 C878.176146,537.510457 880.150036,535.536685 882.584953,535.536685 C885.01987,535.536685 886.993761,537.510457 886.993761,539.945228 Z M886.993761,522.311057 C886.993761,524.745828 885.01987,526.719599 882.584953,526.719599 C880.150036,526.719599 878.176146,524.745828 878.176146,522.311057 C878.176146,519.876286 880.150036,517.902514 882.584953,517.902514 C885.01987,517.902514 886.993761,519.876286 886.993761,522.311057 Z M886.993761,504.676885 C886.993761,507.111656 885.01987,509.085428 882.584953,509.085428 C880.150036,509.085428 878.176146,507.111656 878.176146,504.676885 C878.176146,502.242114 880.150036,500.268343 882.584953,500.268343 C885.01987,500.268343 886.993761,502.242114 886.993761,504.676885 Z M886.993761,487.042714 C886.993761,489.477485 885.01987,491.451257 882.584953,491.451257 C880.150036,491.451257 878.176146,489.477485 878.176146,487.042714 C878.176146,484.607943 880.150036,482.634171 882.584953,482.634171 C885.01987,482.634171 886.993761,484.607943 886.993761,487.042714 Z M886.993761,469.408543 C886.993761,471.843314 885.01987,473.817086 882.584953,473.817086 C880.150036,473.817086 878.176146,471.843314 878.176146,469.408543 C878.176146,466.973772 880.150036,465 882.584953,465 C885.01987,465 886.993761,466.973772 886.993761,469.408543 Z" id="Shape" fill="#CDCBDF"></path>
            <path d="M850.351351,719.351351 C850.351351,630.673632 850.351351,518.561221 850.351351,460.648649 C778.554334,460.648649 720.351351,518.561221 720.351351,590 C720.351351,661.438779 778.554334,719.351351 850.351351,719.351351 Z" id="Shape" fill="#221E41" transform="translate(785.351351, 590.000000) rotate(-270.000000) translate(-785.351351, -590.000000) "></path>
        </g>
        <g id="Package" transform="translate(796.000000, 564.000000)">
            <polygon id="Shape" fill="#FFC2E8" points="10 2.55795385e-13 329 2.55795385e-13 329 336 10 336"></polygon>
            <polygon id="Shape" fill="#FF95D7" points="10 -1.70530257e-13 329 -1.70530257e-13 329 65.5458683 10 65.5458683"></polygon>
            <polygon id="Shape" fill="#FFB0E1" points="0 1.31450406e-13 349 1.31450406e-13 349 46 0 46"></polygon>
        </g>
        <g id="Package" transform="translate(570.000000, 664.000000)">
            <polygon id="Shape" fill="#A587FF" points="10 0 329 0 329 236 10 236"></polygon>
            <polygon id="Shape" fill="#6937FF" points="10 -1.63424829e-13 329 -1.63424829e-13 329 65.5458683 10 65.5458683"></polygon>
            <polygon id="Shape" fill="#A587FF" points="0 1.31450406e-13 349 1.31450406e-13 349 46 0 46"></polygon>
        </g>
        <g id="Gadget" transform="translate(198.263362, 120.000000)">
            <path d="M36,1.70530257e-13 L424.077745,1.70530257e-13 C443.959996,1.66877946e-13 460.077745,16.117749 460.077745,36 L460.077745,744.364656 C460.077745,764.246907 443.959996,780.364656 424.077745,780.364656 L36,780.364656 C16.117749,780.364656 9.26481114e-14,764.246907 2.84217094e-14,744.364656 L2.84217094e-14,36 C2.59792188e-14,16.117749 16.117749,1.74182567e-13 36,1.70530257e-13 Z" id="Shape" fill="#FF6E6E"></path>
            <polygon id="Shape" fill="#FFFFFF" points="440.077745 48.0224404 440.077745 696.325386 20 696.325386 20 48.0224404"></polygon>
            <path d="M72.7366375,241 L400.736638,241 C406.259485,241 410.736638,245.477153 410.736638,251 L410.736638,350 C410.736638,355.522847 406.259485,360 400.736638,360 L72.7366375,360 C67.21379,360 62.7366375,355.522847 62.7366375,350 L62.7366375,251 C62.7366375,245.477153 67.21379,241 72.7366375,241 Z" id="Shape" fill="#C8B6FF"></path>
            <path d="M345.736638,322.5 L323.988583,333.933629 L328.142092,309.716814 L310.547546,292.566371 L334.86261,289.033186 L345.736638,267 L356.610665,289.033186 L380.925729,292.566371 L363.331183,309.716814 L367.484692,333.933629 L345.736638,322.5 Z M82.7366375,265 L171.236638,265 L171.236638,275 L82.7366375,275 L82.7366375,265 Z M82.7366375,315 L270.736638,315 L270.736638,325 L82.7366375,325 L82.7366375,315 Z M82.7366375,290 L270.736638,290 L270.736638,300 L82.7366375,300 L82.7366375,290 Z" id="Shape" fill="#E4DBFF"></path>
            <path d="M72.7366375,410 L400.736638,410 C406.259485,410 410.736638,414.477153 410.736638,420 L410.736638,636 C410.736638,641.522847 406.259485,646 400.736638,646 L72.7366375,646 C67.21379,646 62.7366375,641.522847 62.7366375,636 L62.7366375,420 C62.7366375,414.477153 67.21379,410 72.7366375,410 Z" id="Shape" fill="#FFCFD3"></path>
            <path d="M314.736638,435 L386.736638,435 C388.945777,435 390.736638,436.790861 390.736638,439 L390.736638,511 C390.736638,513.209139 388.945777,515 386.736638,515 L314.736638,515 C312.527499,515 310.736638,513.209139 310.736638,511 L310.736638,439 C310.736638,436.790861 312.527499,435 314.736638,435 Z M84.7366375,435 L160.736638,435 C161.841207,435 162.736638,435.895431 162.736638,437 L162.736638,448 C162.736638,449.104569 161.841207,450 160.736638,450 L84.7366375,450 C83.632068,450 82.7366375,449.104569 82.7366375,448 L82.7366375,437 C82.7366375,435.895431 83.632068,435 84.7366375,435 Z M84.7366375,541 L160.736638,541 C161.841207,541 162.736638,541.895431 162.736638,543 L162.736638,554 C162.736638,555.104569 161.841207,556 160.736638,556 L84.7366375,556 C83.632068,556 82.7366375,555.104569 82.7366375,554 L82.7366375,543 C82.7366375,541.895431 83.632068,541 84.7366375,541 Z M84.7366375,465 L270.736638,465 C271.841207,465 272.736638,465.895431 272.736638,467 L272.736638,478 C272.736638,479.104569 271.841207,480 270.736638,480 L84.7366375,480 C83.632068,480 82.7366375,479.104569 82.7366375,478 L82.7366375,467 C82.7366375,465.895431 83.632068,465 84.7366375,465 Z M84.7366375,571 L270.736638,571 C271.841207,571 272.736638,571.895431 272.736638,573 L272.736638,584 C272.736638,585.104569 271.841207,586 270.736638,586 L84.7366375,586 C83.632068,586 82.7366375,585.104569 82.7366375,584 L82.7366375,573 C82.7366375,571.895431 83.632068,571 84.7366375,571 Z M84.7366375,495 L270.736638,495 C271.841207,495 272.736638,495.895431 272.736638,497 L272.736638,508 C272.736638,509.104569 271.841207,510 270.736638,510 L84.7366375,510 C83.632068,510 82.7366375,509.104569 82.7366375,508 L82.7366375,497 C82.7366375,495.895431 83.632068,495 84.7366375,495 Z M84.7366375,601 L270.736638,601 C271.841207,601 272.736638,601.895431 272.736638,603 L272.736638,614 C272.736638,615.104569 271.841207,616 270.736638,616 L84.7366375,616 C83.632068,616 82.7366375,615.104569 82.7366375,614 L82.7366375,603 C82.7366375,601.895431 83.632068,601 84.7366375,601 Z M314.736638,541 L386.736638,541 C388.945777,541 390.736638,542.790861 390.736638,545 L390.736638,617 C390.736638,619.209139 388.945777,621 386.736638,621 L314.736638,621 C312.527499,621 310.736638,619.209139 310.736638,617 L310.736638,545 C310.736638,542.790861 312.527499,541 314.736638,541 Z" id="Shape" fill="#FF9DA5"></path>
        </g>
        <g id="Data" transform="translate(411.000000, 192.000000)">
            <path d="M10,1.42108547e-14 L338,1.42108547e-14 C343.522847,1.42108547e-14 348,4.4771525 348,10 L348,109 C348,114.522847 343.522847,119 338,119 L10,119 C4.4771525,119 0,114.522847 0,109 L0,10 C0,4.4771525 4.4771525,2.84217094e-14 10,1.42108547e-14 Z" id="Shape" fill="#FFC6E9"></path>
            <path d="M275,97 C254.565464,97 238,80.4345357 238,60 C238,39.5654643 254.565464,23 275,23 C295.434536,23 312,39.5654643 312,60 C312,80.4345357 295.434536,97 275,97 Z M24,23 L112.5,23 L112.5,33 L24,33 L24,23 Z M24,73 L202,73 L202,83 L24,83 L24,73 Z M24,48 L202,48 L202,58 L24,58 L24,48 Z" id="Shape" fill="#FFE4F5"></path>
            <path d="M282.503536,50.2792128 C284.006185,48.6598486 286.537077,48.5652325 288.156441,50.0678818 C289.775805,51.5705311 289.870421,54.101423 288.367772,55.7207872 L276.304741,68.7207872 C274.923804,70.2089851 272.647032,70.4266508 271.009135,69.2270618 L262.636513,63.0949863 C260.854256,61.7896684 260.46762,59.2866943 261.772938,57.5044373 C263.078256,55.7221802 265.58123,55.3355447 267.363487,56.6408627 L272.862929,60.6686319 L282.503536,50.2792128 Z" id="Shape" fill="#FFFFFF" fill-rule="nonzero"></path>
        </g>
        <g id="Women" transform="translate(673.297886, 260.080707)">
            <path d="M82.5477397,48.2088765 C84.4894111,46.3847474 85.7021143,43.7936413 85.7021143,40.9192931 L85.7021143,25.8744508 L175.916531,80.4258437 L160.877714,106.919293 L82.5477397,48.2088765 L82.5477397,48.2088765 Z" id="Shape" fill="#211D41"></path>
            <path d="M33.790874,462.071134 C38.269785,460.987786 42.3390491,460.350969 45.9986663,460.160684 C51.4881311,459.875125 51.2412577,461.817869 50.5935323,463.937255 C49.9458069,466.056641 48.490912,470.814616 47.315931,474.657806 C46.1409955,478.501081 44.8197002,478.560761 38.1869262,476.027628 C31.5541521,473.494495 30.917212,472.615093 23.4789537,471.530949 C16.0406954,470.446806 1.76195589,465.853614 0.160201323,459.907548 C-1.44129017,453.961562 9.27436881,454.996558 18.4584325,456.497775 C24.5810808,457.498472 29.6918947,459.356258 33.790874,462.071134 Z" id="Shape" fill="#221E41"></path>
            <path d="M56.5463808,444.355907 L50.2565787,464.928923 L45.2576657,465.308729 C36.1730657,465.998957 27.2013299,462.944253 20.4254134,456.853824 L32.0649087,457.839822 L37.9276692,438.663596 L56.5463808,444.355907 Z" id="Shape" fill="#FE9F9F"></path>
            <path d="M55.153864,458.132355 L30.135248,445.552387 L59.1661872,281.551057 C61.2071359,270.021347 69.5501315,260.61471 80.7536005,257.211482 L182.956974,226.165621 L110.508638,312.010131 L55.153864,458.132355 Z" id="Shape" fill="#211D41"></path>
            <path d="M152.317317,464.542531 C155.541562,461.250339 158.655032,458.553906 161.657727,456.453233 C166.161735,453.302093 166.981871,455.080456 167.555673,457.221039 C168.129474,459.361623 169.416995,464.167591 170.457135,468.049446 C171.497359,471.93135 170.408463,472.682141 163.441195,474.048757 C156.473928,475.415373 155.46776,475.007124 148.585251,478.029395 C141.702742,481.051666 127.159663,484.722997 122.650363,480.529247 C118.141329,476.335427 127.777187,471.534719 136.361239,467.941011 C142.083828,465.545141 147.40252,464.412314 152.317317,464.542531 Z" id="Shape" fill="#221E41"></path>
            <path d="M162.227441,437.460586 L167.795424,458.24058 L163.757372,461.211694 C156.418959,466.611145 147.191749,468.774905 138.21801,467.200617 L148.611361,461.868797 L143.421413,442.499646 L162.227441,437.460586 Z" id="Shape" fill="#FE9F9F"></path>
            <path d="M181.146563,226.165621 L250.719464,208.460901 L259.696319,246.46042 C260.526712,249.975517 260.946121,253.57515 260.946121,257.187 C260.946121,282.954397 240.057518,303.843 214.290121,303.843 L128.50325,303.843 L169.390073,450.226864 L143.609011,456.500422 L66.7794443,306.75737 C66.2618183,305.748502 65.7997477,304.712083 65.3953018,303.652756 C59.2681128,287.604381 67.3108232,269.627534 83.3591981,263.500346 L181.146563,226.165621 Z" id="Shape" fill="#6937FF"></path>
            <path d="M231.310815,254.606808 L225.749538,258.85795 L225.142232,258.063482 L230.703509,253.81234 L231.310815,254.606808 Z M217.804858,264.93101 L212.243582,269.182152 L211.636276,268.387684 L217.197552,264.136542 L217.804858,264.93101 Z M204.040542,274.987981 C202.031738,276.214129 199.960892,277.33393 197.83658,278.343058 L197.407496,277.439794 C199.500335,276.445616 201.540501,275.342406 203.519542,274.134424 L204.040542,274.987981 Z M188.424119,281.979415 C186.1735,282.660501 183.887886,283.223803 181.576459,283.666714 L181.388265,282.684582 C183.665445,282.248234 185.917195,281.693277 188.13447,281.022282 L188.424119,281.979415 Z M171.634586,284.978813 L164.676979,285.748038 L164.56709,284.754095 L171.524696,283.984869 L171.634586,284.978813 Z M154.737541,286.846932 L147.779934,287.616158 L147.670045,286.622214 L154.627652,285.852989 L154.737541,286.846932 Z M137.840496,288.715052 L130.882889,289.484278 L130.773,288.490334 L137.730607,287.721109 L137.840496,288.715052 Z M120.943451,290.583172 L113.985844,291.352398 L113.875955,290.358454 L120.833562,289.589228 L120.943451,290.583172 Z M105.250383,294.908951 C103.725125,296.565879 102.76687,298.679973 102.527291,300.919385 L101.532965,300.813009 C101.795351,298.360416 102.844308,296.046216 104.514648,294.231682 L105.250383,294.908951 Z M104.81367,310.346927 L107.194124,316.92974 L106.253722,317.269805 L103.873268,310.686992 L104.81367,310.346927 Z M110.594774,326.33376 L112.975229,332.916573 L112.034827,333.256638 L109.654372,326.673825 L110.594774,326.33376 Z M116.375878,342.320593 L118.756333,348.903406 L117.815931,349.243471 L115.435476,342.660658 L116.375878,342.320593 Z M122.156983,358.307426 L124.537438,364.890239 L123.597036,365.230304 L121.216581,358.647491 L122.156983,358.307426 Z M127.938087,374.294259 L130.318542,380.877072 L129.37814,381.217137 L126.997685,374.634324 L127.938087,374.294259 Z M133.719192,390.281092 L136.099647,396.863906 L135.159245,397.20397 L132.77879,390.621157 L133.719192,390.281092 Z M139.500296,406.267925 L141.880751,412.850739 L140.940349,413.190804 L138.559894,406.60799 L139.500296,406.267925 Z M145.281401,422.254758 L147.661856,428.837572 L146.721454,429.177637 L144.340999,422.594823 L145.281401,422.254758 Z M151.062505,438.241591 L153.44296,444.824405 L152.502558,445.16447 L150.122103,438.581656 L151.062505,438.241591 Z" id="Shape" fill="#A587FF" fill-rule="nonzero"></path>
            <path d="M174.781649,83.9448394 C172.270456,70.6963076 168.736343,63.9591051 164.179309,63.7332319 C157.343759,63.394422 154.350928,59.3000021 153.632394,53.4647758 C153.483411,52.254882 153.152673,49.7412447 152.64018,45.923864 L147.528786,44.1232281 L151.964229,33.5759868 L152.789926,18.6438712 C177.210626,9.96610233 192.028481,13.6636045 197.243489,29.7363779 C202.458496,45.8091512 201.73115,58.962673 195.06145,69.1969432 L196.665904,79.3049357 L174.781649,83.9448394 Z" id="Shape" fill="#FE9F9F"></path>
            <path d="M214.830382,23.1850327 C230.836001,22.2660481 238.328284,26.1774683 237.30723,34.9192931 C235.635355,49.2331753 239.615764,46.4136534 252.208145,70.7785219 C260.603065,87.0217676 254.175402,106.176734 232.925157,128.243421 C239.28277,107.700573 236.493895,91.6088144 224.558532,79.9681437 C206.655489,62.5071377 224.644455,49.6781458 226.511987,37.7987195 C227.651668,30.5491706 224.035116,27.0501145 215.662329,27.3015511 C217.068367,37.2086269 214.460777,47.5977419 210.245393,54.2317384 C202.282018,66.7641669 200.702114,70.3501025 195.127037,71.5988025 C192.425792,69.3378634 177.275656,59.2867546 186.91963,49.8438159 C190.786873,46.0571888 188.407169,34.3779861 181.605926,36.9192931 C174.804684,39.4606002 161.772653,38.0788668 152.574556,30.7551299 C140.787846,21.3702797 140.240929,19.5416314 147.555877,6.45597824 C147.555877,6.45597824 152.170359,-2.79042322 164.645711,1.23420767 C175.587743,4.76417957 180.969953,-5.77128757 200.702114,4.99719776 C208.528416,9.26826641 212.900497,15.9250048 214.830382,23.1850327 L214.830382,23.1850327 Z" id="Shape" fill="#211D41"></path>
            <path d="M63.5271165,53.1104268 L69.7339509,65.328571 L62.6973454,71.7627798 C52.6853014,70.1516734 45.4429852,65.2772906 40.9703966,57.1396314 C36.497808,49.0019723 38.4468538,40.7778635 46.817534,32.4673051 L57.4608786,46.552894 L64.5652464,41.7749812 L64.9219731,42.5135702 C66.6098586,46.0082741 66.0618505,50.1715433 63.5271165,53.1104268 Z" id="Shape" fill="#FE9F9F"></path>
            <path d="M192.718693,78.5786004 C208.478895,79.5451924 219.517061,89.7554179 224.066416,99.0975297 C228.61577,108.439641 234.571088,140.311089 251.255346,205.182504 L260.245486,243.238257 C261.07444,246.747267 261.493115,253.945897 261.493115,253.945897 C261.493115,253.945897 234.710931,244.685805 181.146563,226.165621 L169.606476,184.219836 L164.550032,165.463829 C155.494167,162.62863 150.088881,156.60987 148.334174,147.40755 C146.579468,138.205229 148.541587,131.452158 154.220533,127.148337 L96.1327119,118.428248 C91.4078032,117.718949 87.0929197,115.341603 83.9690121,111.726486 L44.8383141,66.442805 L66.8837357,56.9572076 L100.511676,88.3609423 C151.47622,81.1949864 182.211893,77.9342058 192.718693,78.5786004 Z" id="Shape" fill="#00ADFF"></path>
        </g>
        <g id="Men" transform="translate(114.457215, 190.457169)">
            <path d="M118.433517,183.042831 L112.297047,223.042831 L222.180055,223.042831 L228.316525,183.042831 L118.433517,183.042831 L118.433517,183.042831 Z M119.967634,173.042831 L229.850643,173.042831 L237.100605,125.784642 L246.984966,127.301019 L156.984966,713.957484 L147.100605,712.441107 L151.610646,683.042831 L41.7276376,683.042831 L36.9849662,713.957484 L27.1006048,712.441107 L117.100605,125.784642 L126.984966,127.301019 L119.967634,173.042831 Z M110.762929,233.042831 L104.626459,273.042831 L214.509467,273.042831 L220.645937,233.042831 L110.762929,233.042831 Z M103.092341,283.042831 L96.9558706,323.042831 L206.838879,323.042831 L212.975349,283.042831 L103.092341,283.042831 Z M95.4217531,333.042831 L89.2852827,373.042831 L199.168291,373.042831 L205.304762,333.042831 L95.4217531,333.042831 Z M87.7511651,383.042831 L81.6146948,423.042831 L191.497703,423.042831 L197.634174,383.042831 L87.7511651,383.042831 L87.7511651,383.042831 Z M80.0805772,433.042831 L73.9441069,473.042831 L183.827115,473.042831 L189.963586,433.042831 L80.0805772,433.042831 Z M72.4099893,483.042831 L66.2735189,523.042831 L176.156527,523.042831 L182.292998,483.042831 L72.4099893,483.042831 L72.4099893,483.042831 Z M64.7394013,533.042831 L58.602931,573.042831 L168.48594,573.042831 L174.62241,533.042831 L64.7394013,533.042831 L64.7394013,533.042831 Z M57.0688134,583.042831 L50.9323431,623.042831 L160.815352,623.042831 L166.951822,583.042831 L57.0688134,583.042831 L57.0688134,583.042831 Z M49.3982255,633.042831 L43.2617551,673.042831 L153.144764,673.042831 L159.281234,633.042831 L49.3982255,633.042831 Z" id="Shape" fill="#757384" fill-rule="nonzero"></path>
            <path d="M13.7571496,154.074761 L35.2233683,174.859354 L26.6399926,196.25404 L46.150965,223.403802 L35.2233683,238.43332 L8.02248307,209.387868 C-0.404971774,200.388924 -2.39646394,187.119129 3.01815373,176.042807 L13.7571496,154.074761 Z" id="Shape" fill="#FF7070"></path>
            <polygon id="Shape" fill="#221E41" points="65.7310244 87.4848595 40.0573405 98.9416471 8.32705801 153.790683 29.3298986 180.416913 65.7310244 140.873434"></polygon>
            <polygon id="Shape" fill="#FE9F9F" points="45.5569327 534.325439 66.9820781 534.325439 66.9820781 555.716744 45.5569327 555.716744"></polygon>
            <polygon id="Shape" fill="#FE9F9F" points="121.350595 478.860025 145.631142 478.860025 139.372675 505.296805 117.947529 505.296805"></polygon>
            <path d="M116.887791,503.288809 L139.391419,503.288809 L153.646619,508.042432 C160.829807,510.584147 166.879797,511.621515 166.879797,519.583403 C166.879797,521.628689 165.523301,523.28672 163.849978,523.28672 L121.639791,523.28672 C119.015334,523.28672 116.887791,521.159177 116.887791,518.53472 L116.887791,503.288809 Z" id="Shape" fill="#211D41"></path>
            <polygon id="Shape" fill="#211D41" points="70.8454258 547.323479 42.9804993 547.323479 30.5491596 261.137741 100.736573 262.872123"></polygon>
            <path d="M147.447335,495.499607 L115.763157,491.652178 L128.656825,364.065819 L30.4793184,261.498801 L125.461235,263.062332 L170.515672,328.875015 C178.410948,340.407936 181.062713,354.741111 177.816188,368.335364 L147.447335,495.499607 Z" id="Shape" fill="#6937FF"></path>
            <path d="M144.174035,91.7447553 L204.17626,91.7447553 L288.308498,49.5200252 L296.272262,39.4594797 L296.272262,49.5200252 L316.374369,49.5200252 C314.433477,60.1862169 310.597902,66.810172 304.867646,69.3918906 C299.13739,71.9736091 290.860943,71.9736091 280.038304,69.3918906 L205.358833,123.451025 L144.174035,132.156624 L144.174035,91.7447553 Z" id="Shape" fill="#FE9F9F"></path>
            <path d="M44.3666469,553.339932 L66.8702745,553.339932 L81.1254747,558.093555 C88.3086634,560.63527 94.3586527,561.672638 94.3586527,569.634526 C94.3586527,571.679812 93.0021567,573.337843 91.3288342,573.337843 L49.1186469,573.337843 C46.4941898,573.337843 44.3666469,571.210301 44.3666469,568.585843 L44.3666469,553.339932 Z" id="Shape" fill="#211D41"></path>
            <path d="M96.9260473,89.0443182 C97.7147543,76.9811861 100.069139,70.1355925 103.989201,68.5075375 C109.869295,66.065455 113.643671,64.8416855 112.876161,58.6603915 C112.108651,52.4790975 113.771731,50.3975632 116.333146,49.1730708 C118.894561,47.9485783 120.951571,44.0218409 113.639419,39.8157963 C108.764652,37.0117667 105.96776,30.2797713 105.248744,19.6198104 C78.8873365,11.0147233 64.2718412,15.9481988 61.4022582,34.4202369 C58.5326753,52.8922751 60.4967562,67.3244896 67.2945009,77.7168804 L67.2945009,89.0443182 L96.9260473,89.0443182 Z" id="Shape" fill="#FE9F9F"></path>
            <path d="M159.993864,85.2364423 L159.993864,133.630991 L125.525976,133.630991 L125.525976,263.242815 L28.8314712,263.242815 L28.8314712,126.816442 C28.8314712,103.852442 47.4474713,85.2364423 70.4114712,85.2364423 C74.7686721,85.2364423 79.125873,85.2364423 83.4830739,85.2364423 C92.4455141,85.2364423 117.949111,85.2364423 159.993864,85.2364423 Z" id="Shape" fill="#00ADFF"></path>
            <path d="M66.894604,77.478405 C75.0160682,77.230169 79.6575535,75.8293933 80.8190599,73.276078 C82.5613196,69.4461052 82.789714,62.6178766 82.4011901,60.4628654 C82.0126662,58.3078543 79.5537042,59.2098418 77.612035,59.2098418 C75.6703659,59.2098418 72.6560501,54.8439191 74.6675681,51.5614236 C76.6790861,48.2789281 79.4618396,48.7930862 80.8190599,49.3759356 C82.1762802,49.958785 85.4400077,48.3263013 84.3465022,43.0255456 C83.2529967,37.7247899 80.8119325,32.7600687 84.3465022,32.7600687 C87.8810719,32.7600687 107.686446,30.4912038 108.731168,17.0605592 C109.775891,3.62991469 101.972943,-3.98013119 89.4446707,2.14744643 C76.9163983,8.27502404 72.8824336,7.70528123 63.4431876,9.8566604 C54.0039415,12.0080396 44.6071433,14.6489428 42.6184331,31.1872754 C40.6297229,47.725608 47.242707,56.1416315 54.8535307,62.1441436 C62.4643544,68.1466557 60.7208277,69.9860028 61.7750532,73.276078 C62.4778701,75.4694615 64.1843871,76.8702372 66.894604,77.478405 Z" id="Shape" fill="#221E41"></path>
            <path d="M83.5412495,269.629074 L84.2762616,268.965857 L88.9187834,274.110942 L88.1837713,274.774159 L83.5412495,269.629074 Z M94.8159448,282.124279 L95.5509569,281.461062 L100.193479,286.606146 L99.4584667,287.269364 L94.8159448,282.124279 Z M106.09064,294.619484 L106.825652,293.956267 L111.468174,299.101351 L110.733162,299.764569 L106.09064,294.619484 Z M117.365336,307.114689 L118.100348,306.451471 L122.742869,311.596556 L122.007857,312.259773 L117.365336,307.114689 Z M128.640031,319.609894 L129.375043,318.946676 L134.017565,324.091761 L133.282553,324.754978 L128.640031,319.609894 Z M139.914726,332.105098 L140.649738,331.441881 L145.29226,336.586966 L144.557248,337.250183 L139.914726,332.105098 Z M151.189422,344.600303 L151.924434,343.937086 L152.516004,344.592695 C153.908044,346.135426 155.074283,347.856592 155.987889,349.708364 L155.100063,350.146389 C154.226685,348.376153 153.111816,346.730801 151.780992,345.255912 L151.189422,344.600303 Z M157.319857,359.550799 L158.309843,359.545659 C158.317472,361.015021 158.181014,362.484598 157.900412,363.935061 L157.412668,366.456266 L156.440689,366.268231 L156.928433,363.747025 C157.196699,362.360328 157.327149,360.955454 157.319857,359.550799 Z M154.56033,375.988017 L155.532309,376.176053 L154.216057,382.979903 L153.244079,382.791868 L154.56033,375.988017 Z M151.36372,392.511654 L152.335699,392.69969 L151.019447,399.503541 L150.047469,399.315505 L151.36372,392.511654 Z M148.16711,409.035291 L149.139088,409.223327 L147.822837,416.027178 L146.850859,415.839142 L148.16711,409.035291 Z M144.9705,425.558928 L145.942478,425.746964 L144.626227,432.550815 L143.654248,432.362779 L144.9705,425.558928 Z M141.77389,442.082565 L142.745868,442.270601 L141.429617,449.074452 L140.457638,448.886416 L141.77389,442.082565 Z M138.57728,458.606202 L139.549258,458.794238 L138.233007,465.598089 L137.261028,465.410053 L138.57728,458.606202 Z M135.380669,475.129839 L136.352648,475.317875 L135.307298,480.721406 L134.335319,480.533371 L135.380669,475.129839 Z" id="Shape" fill="#A587FF" fill-rule="nonzero"></path>
        </g>
    </g>
</svg>
