<?xml version="1.0" encoding="UTF-8"?>
<svg width="139px" height="180px" viewBox="0 0 139 180" version="1.1" xmlns="http://www.w3.org/2000/svg" xmlns:xlink="http://www.w3.org/1999/xlink">
    <title>人物/男性/6</title>
    <g id="页面-1" stroke="none" stroke-width="1" fill="none" fill-rule="evenodd">
        <g id="人物/男性/6">
            <path d="M12.1521281,97 L2.69343775,113.69129 C2.69343775,113.69129 1.80175246,115.197783 2.04067292,116.636208 C2.29239269,118.141417 3.67045177,119.254483 3.67045177,119.254483 L26.1716393,133 L32.0422563,121.21819 L19.9767731,114.018361 L28.7826986,100.600342 L12.1521281,97 Z M128.864772,97 L138.310663,113.69129 C138.310663,113.69129 139.198082,115.197783 138.959162,116.636208 C138.711708,118.141417 137.333649,119.254483 137.333649,119.254483 L114.862327,133 L109.000243,121.21819 L121.04866,114.018361 L112.255534,100.600342 L128.864772,97 Z" id="胳膊" fill="#FFDEC4"></path>
            <g id="头" transform="translate(46.000000, 0.000000)">
                <path d="M19.7978495,10.8951898 C33.9014194,9.72992686 34.2537135,22.5473378 34.2621639,23.0605004 L34.2623656,23.0763212 C34.2623656,23.0763212 34.4497429,24.5851263 34.5659805,26.7951897 C34.7841634,26.7316006 35.0125428,26.698146 35.2473118,26.698146 C36.8817204,26.698146 38.2064516,28.3195693 38.2064516,30.3195401 C38.2064516,32.3195109 36.8817204,33.9409343 35.2473118,33.9409343 C34.996748,33.9409343 34.7534623,33.9028267 34.5211123,33.8310896 C34.3767771,35.7121856 34.0964732,37.5851996 33.6043011,39.2082993 C32.649386,42.365345 30.871249,45.1915329 28.4745047,47.4075037 C28.3070785,48.7269457 28.264186,50.0606422 28.344086,51.3907226 C28.5189796,52.9902827 28.9640219,54.5484642 29.6602151,55.9987518 C29.6602151,55.9987518 27.5182796,58.9621022 22.4258065,58.9621022 C17.0365591,58.9621022 14.5376344,55.9987518 14.5376344,55.9987518 C15.3376712,54.9231703 15.8979475,53.6882537 16.1806452,52.3773577 C16.4363814,50.9155549 16.554588,49.4335785 16.5340571,47.9508931 C14.5057616,46.7603013 11.6088631,44.5813996 9.93548387,41.1837226 C9.08338034,39.4541309 8.45194222,37.4871304 7.98402637,35.523553 C7.58265508,35.7751342 7.12738724,35.9163577 6.64516129,35.9163577 C5.01075269,35.9163577 3.68602151,34.2949343 3.68602151,32.2945328 C3.68602151,30.2941314 5.01075269,28.6731387 6.64516129,28.6731387 C6.7271379,28.6731387 6.80833545,28.6772188 6.88862587,28.685222 C6.68202189,26.5105524 6.65073021,24.9057955 6.64599909,24.4958209 L6.64516129,24.3932701 C6.64516129,24.3932701 6.61351613,24.1166171 6.60885645,23.6422491 L6.60857078,23.4421441 C6.62837333,20.5333329 7.71376344,11.8931769 19.7978495,10.8951898 Z" id="微博_杨锦Vincent" fill="#FFDEC4"></path>
                <path d="M18.1505376,4.6390365 C18.5848402,5.29810656 19.3375829,5.67479447 20.1247312,5.6269635 C21.711828,5.53824818 24.0688172,4.3100146 24.0688172,4.3100146 C24.0688172,4.3100146 34.1075269,-1.85957664 39.1913978,12.2112774 C41.2989247,18.038927 35.5741935,30.9771533 35.5741935,30.9771533 L35.5291828,31.0140589 C35.1879546,31.288801 33.0112054,32.950922 32.6150538,30.9771533 C32.0903226,28.3531606 33.2043011,19.5445036 31.6301075,17.479073 C29.2731183,14.3839416 25.3849462,16.1629854 25.3849462,16.1629854 C24.0046428,17.960066 22.3378409,19.5169589 20.4516129,20.7710146 C17.8107527,22.5095766 13.8795699,23.0754599 13.8795699,23.0754599 C13.8795699,23.0754599 10.9763441,23.7981022 8.94623656,23.4049124 C8.40839219,23.300557 7.87807615,23.1444705 7.37095809,22.9594017 C7.41488317,23.9288819 7.47616581,25.2494081 7.54234803,26.5723064 L7.56833772,27.0867632 C7.59015685,27.5143142 7.612322,27.9373788 7.6344086,28.3441168 C7.74969205,30.3293998 7.96790729,32.3073454 8.28817204,34.2699562 L8.28817204,34.2699562 L6.31827957,33.9409343 C5.23791065,32.1024432 4.46089924,30.1014462 4.0172043,28.0150949 C3.6415146,25.6860896 3.51245171,23.3246853 3.63166003,20.9701156 C3.45560154,20.8454346 3.35913978,20.7710146 3.35913978,20.7710146 C3.35913978,20.7710146 3.34746733,20.7600483 3.32554451,20.7385336 L3.26845307,20.6815634 C2.56929439,19.9736928 -1.85078577,15.1578984 1.38494624,9.57737956 C11.9182796,-8.56361314 18.1505376,4.6390365 18.1505376,4.6390365 Z" id="站酷_杨锦Vincent" fill="#5A2F02"></path>
            </g>
            <path d="M60.5466284,56 C62.7129881,57.9052621 65.4970469,58.953179 68.3778097,58.9476486 C73.1644804,58.9476486 75.5599508,56 75.5599508,56 L95.466694,59.2754031 C95.466694,59.2754031 100.129535,60.0577296 102.973355,62.8777039 C110.830156,70.6679793 123.862199,85.8046691 123.862199,85.8046691 L133,95.958633 C130.724259,98.7042646 128.088502,101.128099 125.164549,103.164091 C120.578568,106.313534 114.395607,108.733776 114.395607,108.733776 L107.217736,101.855644 L107.217736,150 L34.1110542,150 L34.1110542,101.198421 L29.8666735,106.441208 C29.8666735,106.441208 23.5812325,105.211593 18.1156316,102.510725 C14.4839931,100.628365 11.0882835,98.3194494 8,95.6325922 L29.5421534,69.1028979 C30.8815998,67.7147986 32.2971686,66.4027423 33.7822641,65.1728425 C35.1315594,64.0985828 36.5493734,63.1139356 38.0266448,62.2251939 C39.8292706,61.4453589 41.6824119,60.7887792 43.5733757,60.2599521 C50.2303068,58.4185285 60.5466284,56 60.5466284,56 Z" id="衣服" fill="#5B7EFF"></path>
            <path d="M114.081738,131.704346 C114.081738,131.704346 131.955744,124.257264 137.145387,140.496769 C141.721201,154.825718 126.431285,157.834467 126.431285,157.834467 L126.431285,157.834467 L114.871,159.968 L109.836446,176 L68.952,168.446 L28.0341079,176 L22.993,159.955 L11.5551669,157.842633 C11.5551669,157.842633 -3.7175791,154.833885 0.853942676,140.512672 C6.0392932,124.280474 23.8918369,131.724118 23.8918369,131.724118 L68.932,143.749 Z" id="裤子" fill="#262626"></path>
            <path d="M24.1332144,164 L19.2089864,164.320268 C17.6789003,164.401494 16.1454159,164.401494 14.6153298,164.320268 C11.4598742,164.188812 8.53195481,164.184207 8.53195481,164.184207 C8.53195481,164.184207 2.65894349,163.970694 1.4396926,165.649486 C-0.904360166,168.879798 0.31918386,175.445923 0.31918386,175.445923 C0.31918386,175.445923 1.05760341,178.163387 2.45287292,179.388779 C3.62919244,180.425778 5.78864031,179.647506 5.78864031,179.647506 C5.78864031,179.647506 9.67392924,178.632695 13.8168064,177.751435 C19.4322295,176.558279 21.8363862,176.16056 21.8363862,176.16056 L27.7437426,174.560057 L24.1332144,164 Z M113.735275,164 L118.685262,164.321524 C120.223927,164.403233 121.766012,164.403233 123.304678,164.321524 C126.477306,164.189649 129.422398,164.185044 129.422398,164.185044 C129.422398,164.185044 135.325461,163.970694 136.553298,165.657021 C138.91023,168.901568 137.6781,175.498254 137.6781,175.498254 C137.6781,175.498254 136.935387,178.227441 135.535825,179.458694 C134.350919,180.49988 132.182885,179.718676 132.182885,179.718676 C132.182885,179.718676 128.27613,178.698842 124.107494,177.813814 C118.462019,176.615634 116.044983,176.215404 116.044983,176.215404 L110.103282,174.608202 L113.735275,164 Z" id="脚" fill="#FFDEC4"></path>
            <path d="M32.2226037,64 L109.777396,64 C112.153669,64 114.08002,65.92545 114.08002,68.3006128 L114.08002,128.767229 L27.91998,128.767229 L27.91998,68.3006128 C27.91998,65.92545 29.8463302,64 32.2226037,64 Z M25.6180763,128.767229 L116.381923,128.767229 C117.674538,128.767229 118.868962,129.456508 119.51527,130.575422 C120.161577,131.694335 120.161577,133.072894 119.51527,134.191807 C118.868962,135.310721 117.674538,136 116.381923,136 L25.6180763,136 C23.6198679,136 22,134.380889 22,132.383615 C22,130.38634 23.6198679,128.767229 25.6180763,128.767229 L25.6180763,128.767229 Z" id="电脑" fill="#626262"></path>
        </g>
    </g>
</svg>